<?xml version="1.0" encoding="UTF-8" standalone="no"?>
<!DOCTYPE svg PUBLIC "-//W3C//DTD SVG 1.1//EN" "http://www.w3.org/Graphics/SVG/1.1/DTD/svg11.dtd">
<svg width="100%" height="100%" viewBox="0 0 36 36" version="1.1" xmlns="http://www.w3.org/2000/svg" xmlns:xlink="http://www.w3.org/1999/xlink" xml:space="preserve" xmlns:serif="http://www.serif.com/" style="fill-rule:evenodd;clip-rule:evenodd;stroke-linecap:round;stroke-linejoin:round;stroke-miterlimit:1.5;">
    <g transform="matrix(1,0,0,1,-41.7725,0)">
        <g transform="matrix(1,0,0,1,41.7725,0)">
            <rect id="Artboard1" x="0" y="0" width="36" height="36" style="fill:none;"/>
            <g id="Artboard11" serif:id="Artboard1">
                <g transform="matrix(1,0,0,1,1.21803,0)">
                    <g transform="matrix(1,0,0,1,-2.40015,0)">
                        <g transform="matrix(1,0,0,1,-41.7725,0.342848)">
                            <path d="M45.701,28.388C45.701,28.388 48.696,26.317 50.547,25.037C51.421,24.433 51.873,23.383 51.711,22.333C51.393,20.269 50.902,17.079 50.902,17.079C50.902,17.079 49.926,13.938 51.931,10.505L56.432,2.951C56.432,2.951 57.371,0.741 58.783,1.468C60.195,2.196 59.483,3.374 59.294,4.401L57.364,11.528" style="fill:none;stroke:black;stroke-width:3px;"/>
                        </g>
                        <g transform="matrix(1,0,0,1,-41.7725,0)">
                            <path d="M55.076,18C55.076,18 55.367,14.175 57.481,11.965C57.481,11.965 58.239,9.935 59.079,11.347C59.079,11.347 60.618,11.994 60.772,15.198C60.865,17.112 61.532,27.21 59.557,28.765C59.471,28.807 59.391,28.862 59.322,28.929C59.139,29.072 53.773,34.212 53.773,34.212" style="fill:none;stroke:black;stroke-width:3px;"/>
                        </g>
                    </g>
                    <g transform="matrix(-1,0,0,1,35.9641,0)">
                        <g transform="matrix(1,0,0,1,-41.7725,0.342848)">
                            <path d="M45.701,28.388C45.701,28.388 48.696,26.317 50.547,25.037C51.421,24.433 51.873,23.383 51.711,22.333C51.393,20.269 50.902,17.079 50.902,17.079C50.902,17.079 49.926,13.938 51.931,10.505L56.432,2.951C56.432,2.951 57.371,0.741 58.783,1.468C60.195,2.196 59.483,3.374 59.294,4.401L57.364,11.528" style="fill:none;stroke:black;stroke-width:3px;"/>
                        </g>
                        <g transform="matrix(1,0,0,1,-41.7725,0)">
                            <path d="M55.076,18C55.076,18 55.367,14.175 57.481,11.965C57.481,11.965 58.239,9.935 59.079,11.347C59.079,11.347 60.618,11.994 60.772,15.198C60.865,17.112 61.532,27.21 59.557,28.765C59.471,28.807 59.391,28.862 59.322,28.929C59.139,29.072 53.773,34.212 53.773,34.212" style="fill:none;stroke:black;stroke-width:3px;"/>
                        </g>
                    </g>
                </g>
            </g>
        </g>
    </g>
</svg>
